<?xml version="1.0" encoding="utf-8"?>
<svg version="1.1" id="Layer_1" x="0px" y="0px"
	 viewBox="0 0 29.1 28.1" style="enable-background:new 0 0 29.1 28.1;" xml:space="preserve">
<path d="M14.6,28.1l-0.5-0.3c-0.3-0.2-7.6-4.5-11.7-11.1C0.1,13.3-0.5,9.6,0.4,6.4C1.2,3.8,3,1.7,5.5,0.6C6.4,0.2,7.3,0,8.2,0
	c2.9,0,5.2,2,6.3,3.3C15.7,2,18,0,20.9,0c0.9,0,1.8,0.2,2.7,0.6c2.5,1.1,4.3,3.2,5.1,5.8c1,3.2,0.3,6.9-1.9,10.3
	c-4.1,6.6-11.4,10.9-11.7,11.1L14.6,28.1z M8.2,2C7.6,2,7,2.1,6.4,2.4c-2,0.9-3.4,2.5-4,4.6C1.5,9.6,2.1,12.7,4,15.7
	c3.3,5.2,8.9,9,10.5,10.1c1.7-1.1,7.3-4.9,10.5-10.1c1.9-3,2.5-6.1,1.7-8.7c-0.6-2.1-2.1-3.7-4-4.6C22.2,2.1,21.5,2,20.9,2
	c-3.1,0-5.5,3.4-5.5,3.5l-0.8,1.2l-0.8-1.2C13.7,5.4,11.4,2,8.2,2z"/>
</svg>
